<svg xmlns="http://www.w3.org/2000/svg" viewBox="0 0 1024 1024">
  <defs>
    <linearGradient id="sky" x1="0" y1="0" x2="0" y2="1">
      <stop offset="0" stop-color="#565b89"/>
      <stop offset="0.56" stop-color="#f4aa83"/>
      <stop offset="1" stop-color="#ffd39f"/>
    </linearGradient>
    <linearGradient id="roof" x1="0" y1="0" x2="1" y2="1">
      <stop offset="0" stop-color="#fff0d2"/>
      <stop offset="1" stop-color="#d9c2a3"/>
    </linearGradient>
    <filter id="shadow" x="-50%" y="-50%" width="200%" height="200%">
      <feDropShadow dx="0" dy="18" stdDeviation="15" flood-color="#27283a" flood-opacity=".3"/>
    </filter>
    <filter id="glow" x="-100%" y="-100%" width="300%" height="300%">
      <feGaussianBlur stdDeviation="8" result="blur"/>
      <feMerge><feMergeNode in="blur"/><feMergeNode in="SourceGraphic"/></feMerge>
    </filter>
    <pattern id="windows" width="70" height="78" patternUnits="userSpaceOnUse">
      <rect width="70" height="78" fill="#655c72"/>
      <rect x="15" y="17" width="22" height="16" rx="2" fill="#ffd58f" opacity=".7"/>
    </pattern>
  </defs>

  <rect width="1024" height="1024" fill="url(#sky)"/>
  <circle cx="806" cy="245" r="126" fill="#ffe6ad" opacity=".22"/>
  <g fill="#ffdec4" opacity=".2">
    <ellipse cx="118" cy="286" rx="160" ry="39"/><ellipse cx="246" cy="273" rx="123" ry="47"/>
    <ellipse cx="795" cy="386" rx="142" ry="34"/><ellipse cx="906" cy="378" rx="112" ry="42"/>
  </g>

  <g opacity=".85">
    <path d="M0 560 120 504 240 568 360 466 472 544 590 454 710 530 854 426 1024 492V760H0Z" fill="#665d73"/>
    <path d="M0 625 116 560 247 640 374 530 505 625 632 540 766 626 903 526 1024 590V798H0Z" fill="#514f68"/>
  </g>

  <g stroke="#79d7d2" stroke-linecap="round" fill="none" opacity=".65">
    <path d="M54 386C258 298 406 340 572 276S840 238 984 286" stroke-width="12"/>
    <path d="M-32 430C188 364 346 408 482 344S752 302 1058 352" stroke-width="5" opacity=".72"/>
    <path d="M171 466C353 420 524 444 698 386S902 358 1084 396" stroke-width="7" opacity=".55"/>
  </g>
  <g fill="#79d7d2" opacity=".75">
    <path d="m938 273 45 12-38 27Z"/><path d="m1011 340 35 10-29 20Z"/><path d="m1048 385 36 10-30 22Z"/>
  </g>

  <g transform="translate(450 275) rotate(-18)" filter="url(#shadow)">
    <path d="M-148 26C-63-25 11-46 116-40" fill="none" stroke="#fff5de" stroke-width="10" stroke-linecap="round" stroke-dasharray="2 25" opacity=".9"/>
    <path d="M-132 67C-43 15 45-4 154-7" fill="none" stroke="#79d7d2" stroke-width="9" stroke-linecap="round" stroke-dasharray="1 23" opacity=".8"/>
    <g transform="translate(79 -7)">
      <path d="M-105-70 92-70 123 61-72 61Z" fill="#d94743"/>
      <path d="m-105-70 30-28 194 0-27 28Z" fill="#f46e58"/>
      <path d="m92-70 27-28 31 128-27 31Z" fill="#b83e3e"/>
      <path d="M-19-70 27-70 57 61 11 61Z" fill="#f7d58b"/>
      <path d="m-19-70 19-28h45L27-70Z" fill="#ffe4a8"/>
      <rect x="41" y="-21" width="61" height="42" rx="2" fill="#fff5de" transform="skewY(7)"/>
      <path d="M54-8h34M54 3h24" stroke="#27283a" stroke-width="5"/>
    </g>
  </g>

  <g transform="translate(598 595)" filter="url(#glow)">
    <ellipse rx="184" ry="72" fill="#fff0d2" opacity=".44"/>
    <ellipse rx="126" ry="49" fill="#f7d58b" opacity=".8"/>
    <ellipse rx="65" ry="26" fill="#f05d4e"/>
    <path d="M0-71 0-23" stroke="#fff" stroke-width="9" stroke-linecap="round"/>
    <path d="m0-88 14 16-14 17-14-17Z" fill="#fff"/>
  </g>

  <path d="M280 612 1024 493v531H280Z" fill="#736878"/>
  <path d="m280 612 744-119v70L280 690Z" fill="url(#roof)"/>
  <path d="M0 724 378 632l109 392H0Z" fill="#5b536a"/>
  <path d="m0 724 378-92 22 76L0 810Z" fill="url(#roof)"/>
  <path d="M291 789 1024 661v363H385Z" fill="url(#windows)" opacity=".72"/>
  <path d="M0 862 401 752l40 272H0Z" fill="#524e65"/>

  <g transform="translate(64 78)">
    <text x="0" y="0" fill="#fff5de" font-family="Arial Black,Arial,sans-serif" font-size="44" letter-spacing="7">DUSK SHIFT · 08</text>
    <text x="-5" y="111" fill="#fff5de" font-family="Arial Black,Arial,sans-serif" font-size="112" letter-spacing="-8">ROOFTOP</text>
    <text x="43" y="207" fill="#f7d58b" font-family="Arial Black,Arial,sans-serif" font-size="107" letter-spacing="-8">DELIVERY</text>
    <path d="M12 239H598" stroke="#f05d4e" stroke-width="14"/>
  </g>

  <g transform="translate(774 835) rotate(8)" fill="none" stroke="#fff5de" opacity=".86">
    <circle r="90" stroke-width="6"/><circle r="74" stroke-width="2"/>
    <path d="M-112-4H112M-105 17H105" stroke-width="5"/>
    <text x="0" y="-24" fill="#fff5de" stroke="none" text-anchor="middle" font-family="Arial Black,Arial,sans-serif" font-size="24" letter-spacing="4">EXPRESS</text>
    <text x="0" y="52" fill="#fff5de" stroke="none" text-anchor="middle" font-family="Arial, sans-serif" font-size="22" letter-spacing="5">AIRMAIL</text>
  </g>
</svg>
